<?xml version="1.0" encoding="utf-8"?>
<!-- Generator: Adobe Illustrator 15.0.2, SVG Export Plug-In . SVG Version: 6.00 Build 0)  -->
<!DOCTYPE svg PUBLIC "-//W3C//DTD SVG 1.1//EN" "http://www.w3.org/Graphics/SVG/1.1/DTD/svg11.dtd">
<svg version="1.1" id="Layer_1" xmlns="http://www.w3.org/2000/svg" xmlns:xlink="http://www.w3.org/1999/xlink" x="0px" y="0px"
	 width="54.958px" height="54.958px" viewBox="0 0 54.958 54.958" enable-background="new 0 0 54.958 54.958" xml:space="preserve">
<rect fill="#212221" width="54.958" height="54.958"/>
<path fill="#FFFFFF" d="M29.684,5.322v29.656l-0.003,2.229c-1.749-1.175-4.329-1.673-7.193-1.396
	c-4.986,0.48-9.621,4.947-9.071,9.482c0.448,3.7,5.421,5.158,10.27,3.895c4.563-1.188,7.81-3.862,8.253-7.029
	c0.15-0.677,0.264-1.542,0.275-2.638c0.027-2.635,0.016-18.256,0.006-26.504c0.931-0.161,3.389,1.152,5.737,3.808
	c2.958,3.343,2.757,6.008,3.179,7.968C44.305,11.671,29.684,5.322,29.684,5.322z"/>
</svg>
