<?xml version="1.0" encoding="utf-8"?>
<!-- Generator: Adobe Illustrator 15.0.2, SVG Export Plug-In . SVG Version: 6.00 Build 0)  -->
<!DOCTYPE svg PUBLIC "-//W3C//DTD SVG 1.1//EN" "http://www.w3.org/Graphics/SVG/1.1/DTD/svg11.dtd">
<svg version="1.1" id="Back" xmlns="http://www.w3.org/2000/svg" xmlns:xlink="http://www.w3.org/1999/xlink" x="0px" y="0px"
	 width="1000px" height="1000px" viewBox="0 0 1000 1000" style="enable-background:new 0 0 1000 1000;" xml:space="preserve">
<g>
	<path style="fill:#FFFFFF;" d="M959.329,303.788c-25.097-59.335-61.017-112.615-106.76-158.359
		c-45.744-45.744-99.023-81.663-158.358-106.76C632.758,12.676,567.504-0.503,500.261-0.503s-132.497,13.179-193.95,39.172
		c-59.334,25.097-112.614,61.016-158.357,106.76c-45.744,45.744-81.663,99.023-106.76,158.359
		C15.2,365.24,2.021,430.495,2.021,497.737c0,67.243,13.179,132.497,39.172,193.95c25.097,59.335,61.016,112.613,106.76,158.357
		c45.744,45.744,99.023,81.664,158.357,106.761c61.453,25.992,126.707,39.173,193.95,39.173s132.497-13.181,193.95-39.173
		c59.335-25.097,112.614-61.017,158.358-106.761c45.743-45.744,81.663-99.022,106.76-158.357
		c25.993-61.453,39.172-126.707,39.172-193.95C998.501,430.495,985.322,365.24,959.329,303.788z M500.261,911.172
		c-227.968,0-413.434-185.466-413.434-413.435c0-227.968,185.466-413.435,413.434-413.435S913.694,269.77,913.694,497.737
		C913.694,725.706,728.229,911.172,500.261,911.172z"/>
	<path style="fill:#FFFFFF;" d="M701.676,455.334H365.603l108.738-108.738c16.561-16.56,16.561-43.408,0-59.968
		c-16.559-16.56-43.408-16.56-59.967,0L233.249,467.753c-16.56,16.56-16.56,43.408,0,59.967l181.125,181.125
		c8.279,8.28,19.132,12.42,29.983,12.42c10.851,0,21.703-4.14,29.982-12.42c16.561-16.56,16.561-43.407,0-59.967L365.603,540.141
		h336.073c23.419,0,42.403-18.983,42.403-42.402S725.095,455.334,701.676,455.334z"/>
</g>
</svg>
