<?xml version="1.0" encoding="utf-8"?>
<!-- Generator: Adobe Illustrator 15.0.2, SVG Export Plug-In . SVG Version: 6.00 Build 0)  -->
<!DOCTYPE svg PUBLIC "-//W3C//DTD SVG 1.1//EN" "http://www.w3.org/Graphics/SVG/1.1/DTD/svg11.dtd">
<svg version="1.1" id="Undo" xmlns="http://www.w3.org/2000/svg" xmlns:xlink="http://www.w3.org/1999/xlink" x="0px" y="0px"
	 width="946.134px" height="881.465px" viewBox="0 43.296 946.134 881.465"
	 style="enable-background:new 0 43.296 946.134 881.465;" xml:space="preserve">
<g>
	<path d="M134.677,571.061c0,41.898-17.655,62.85-52.964,62.85c-36.588,0-54.882-21.688-54.882-65.063V441.085H2.046v129.386
		c0,57.146,25.67,85.717,77.011,85.717c53.603,0,80.405-29.702,80.405-89.109V441.085h-24.785V571.061z"/>
	<path d="M209.033,501.573v151.071h24.195v-86.157c0-13.868,3.958-25.352,11.876-34.449c7.916-9.097,17.925-13.646,30.022-13.646
		c23.407,0,35.113,16.032,35.113,48.097v86.158h24.194v-92.354c0-20.161-4.377-35.578-13.13-46.252
		c-8.755-10.67-21.392-16.007-37.916-16.007c-21.639,0-38.162,9.541-49.571,28.621h-0.59v-25.08L209.033,501.573L209.033,501.573z"
		/>
	<path d="M508.965,652.646V428.987h-24.193v93.534h-0.592c-9.44-16.324-24.541-24.489-45.292-24.489
		c-20.948,0-37.72,7.523-50.309,22.571c-12.591,15.05-18.884,35.064-18.884,60.047c0,23.31,5.68,41.729,17.04,55.25
		c11.359,13.523,26.529,20.285,45.514,20.285c23.406,0,40.719-9.736,51.931-29.212h0.592v25.672L508.965,652.646L508.965,652.646z
		 M472.156,621.222c-8.409,9.736-19.354,14.605-32.826,14.605c-13.672,0-24.563-5.039-32.678-15.122
		c-8.114-10.081-12.172-23.826-12.172-41.235c0-19.08,4.228-34.028,12.688-44.85c8.458-10.818,20.064-16.229,34.817-16.229
		c12.394,0,22.621,4.229,30.688,12.688c8.063,8.46,12.098,18.787,12.098,30.98v22.277
		C484.771,599.19,480.565,611.484,472.156,621.222z"/>
	<path d="M621.089,656.188c22.916,0,41.186-7.253,54.81-21.762c13.62-14.507,20.433-33.809,20.433-57.906
		c0-24.588-6.32-43.816-18.958-57.686c-12.639-13.867-30.221-20.802-52.742-20.802c-23.604,0-42.342,7.132-56.21,21.392
		c-13.868,14.264-20.802,34.08-20.802,59.456c0,23.311,6.662,42.023,19.99,56.136C580.935,649.13,598.761,656.188,621.089,656.188z
		 M585.977,534.251c9.049-10.571,21.342-15.859,36.884-15.859c15.639,0,27.661,5.115,36.07,15.345
		c8.409,10.229,12.614,24.784,12.614,43.669c0,18.688-4.205,33.098-12.614,43.227c-8.409,10.132-20.433,15.196-36.07,15.196
		c-15.345,0-27.589-5.164-36.735-15.491s-13.721-24.439-13.721-42.342C572.403,559.405,576.926,544.825,585.977,534.251z"/>
	<path d="M912.036,322.322c-21.844-51.642-53.104-98.012-92.915-137.824s-86.182-71.074-137.822-92.918
		C627.81,68.953,571.016,57.481,512.496,57.481c-70.946,0-139.696,17.126-201.16,49.357l-62.033-63.542L81.498,392.029
		l352.684-159.354l-58.854-60.287c42.859-18.454,89.388-28.179,137.169-28.179c191.286,0,346.908,155.624,346.908,346.912
		c0,191.289-155.622,346.913-346.908,346.913c-87.293,0-170.708-32.532-234.881-91.604c-17.62-16.219-45.054-15.083-61.273,2.536
		c-16.22,17.621-15.084,45.054,2.536,61.274c80.228,73.85,184.504,114.521,293.618,114.521c58.521,0,115.312-11.471,168.801-34.094
		c51.644-21.843,98.014-53.104,137.823-92.913c39.813-39.811,71.073-86.181,92.916-137.824
		c22.625-53.49,34.097-110.286,34.097-168.811C946.133,432.603,934.661,375.811,912.036,322.322z"/>
</g>
</svg>
