<?xml version="1.0" encoding="utf-8"?>
<!-- Generator: Adobe Illustrator 15.0.2, SVG Export Plug-In . SVG Version: 6.00 Build 0)  -->
<!DOCTYPE svg PUBLIC "-//W3C//DTD SVG 1.1//EN" "http://www.w3.org/Graphics/SVG/1.1/DTD/svg11.dtd">
<svg version="1.1" id="Layer_1" xmlns="http://www.w3.org/2000/svg" xmlns:xlink="http://www.w3.org/1999/xlink" x="0px" y="0px"
	 width="497.338px" height="497.338px" viewBox="0 0 497.338 497.338" enable-background="new 0 0 497.338 497.338"
	 xml:space="preserve">
<path fill="#FFFFFF" d="M248.669,0C111.325,0,0,111.323,0,248.669c0,137.33,111.325,248.669,248.669,248.669
	c137.33,0,248.669-111.339,248.669-248.669C497.338,111.323,385.999,0,248.669,0z M404.968,395.562
	c-16.148,4.958-23.168,24.005-23.168,24.005s-87.706,63.685-99.284,64.521c-11.577,0.821-14.892,0-14.892,0
	s16.552-21.513,16.552-24.827c0-3.302-2.48-11.578-2.48-11.578s17.359-34.747,11.562-40.545c-5.78-5.795-26.47-8.276-29.757-16.552
	c-3.314-8.26-24.005-39.707-23.168-45.488c0.82-5.795,3.301-35.582,4.138-39.72c0.805-4.139,17.373-26.473,14.042-28.129
	c-3.289-1.644-25.635,0-25.635,0s-31.307,0.819-28.889-6.618c2.417-7.439,2.417-17.9-8.337-21.775
	c-10.758-3.86-27.31-17.095-27.31-19.589c0-2.465-17.172-3.302-14.784,4.138c2.387,7.438-37.336-23.991-38.157-29.789
	c-0.836-5.797,0-10.756,0-10.756l-14.072-40.125c0,0-3.318,13.653,0,31.864c-6.292-4.137-7.315-17.388-10.694-21.512
	c-3.363-4.138-1.581-25.649-1.581-25.649s2.356-32.282,9.795-42.201c7.439-9.934,18.195-23.991,16.552-26.47
	c-0.931-1.396,8.152-13.779,2.634-24.1c8.989-5.099,26.564-17.545,46.526-22.875c16.769-4.511,38.498-4.417,46.806-1.008
	c10.631,4.354,28.129,0.822,28.129,4.138c0,3.302-28.952,4.123-29.789,10.756c-0.821,6.618,39.288,23.154,38.265,12.399
	c-1.037-10.756-5.395-18.195,0.93-19.032c6.321-0.821,26.998,15.715,29.478,11.592c2.479-4.138,35.585,17.374,40.543,13.236
	c4.96-4.138,13.235,4.138,4.96,7.455c-8.276,3.301-49.657,7.44-47.982,14.057c1.642,6.602,19.837-1.643,19.837-1.643l12.432,9.903
	c0,0-31.432,10.771-28.953,14.909c2.48,4.138-28.143,19.017-23.992,33.089c4.126,14.057-20.705,4.152-20.705,14.057
	c0,9.935,7.47,24.827,7.47,28.965c0,4.138,0,7.439-9.112,6.619c-1.644-0.155-1.953-13.128-12.398-21.512
	c-10.446-8.385-29.385-10.354-47.177,0c-35.568,20.69-12.4,52.957-11.562,52.121l4.122,0.015h15.731c0,0,1.657-13.252,4.943-13.252
	c3.317,0,21.511,0,21.511,0s-24.797,27.292-9.082,35.585c15.715,8.259,18.195,19.031,19.837,23.169
	c1.675,4.123,47.984,15.701,49.642,10.74c1.658-4.959,19.854-22.72,34.76-17.56c14.88,5.16,91.814,32.453,102.568,51.485
	c10.756,19.017,25.187,14.88,27.898,12.414c2.727-2.48,11.003,5.78,13.482,9.097C449.635,326.889,421.102,390.586,404.968,395.562z
	 M294.93,216.851h-17.389v-9.919c0,0,0,0,4.975,0C287.477,206.932,294.93,216.851,294.93,216.851z M271.762,207.754
	c0,4.974-12.413,4.138-14.895,0c-2.479-4.139-25.666-13.25-32.269-14.057c0,0-0.836-4.155,4.14-4.96
	C233.713,187.901,271.762,202.793,271.762,207.754z"/>
</svg>
