<?xml version="1.0" encoding="utf-8"?>
<!-- Generator: Adobe Illustrator 15.0.0, SVG Export Plug-In . SVG Version: 6.00 Build 0)  -->
<!DOCTYPE svg PUBLIC "-//W3C//DTD SVG 1.1//EN" "http://www.w3.org/Graphics/SVG/1.1/DTD/svg11.dtd">
<svg version="1.1" id="Undo" xmlns="http://www.w3.org/2000/svg" xmlns:xlink="http://www.w3.org/1999/xlink" x="0px" y="0px"
	 width="1000px" height="1000px" viewBox="0 0 1000 1000" enable-background="new 0 0 1000 1000" xml:space="preserve">
<g>
	<path d="M134.677,571.061c0,41.898-17.655,62.849-52.964,62.849c-36.588,0-54.882-21.688-54.882-65.062V441.085H2.046v129.386
		c0,57.146,25.67,85.716,77.011,85.716c53.603,0,80.405-29.702,80.405-89.109V441.085h-24.785V571.061z"/>
	<path d="M209.033,501.573v151.072h24.195v-86.158c0-13.868,3.958-25.351,11.876-34.449c7.916-9.097,17.925-13.646,30.022-13.646
		c23.407,0,35.113,16.032,35.113,48.096v86.158h24.195v-92.354c0-20.161-4.377-35.578-13.13-46.252
		c-8.755-10.67-21.392-16.007-37.916-16.007c-21.639,0-38.162,9.541-49.571,28.621h-0.59v-25.08H209.033z"/>
	<path d="M508.965,652.646V428.987h-24.194v93.535h-0.591c-9.441-16.325-24.541-24.49-45.292-24.49
		c-20.949,0-37.72,7.524-50.309,22.572c-12.591,15.049-18.884,35.064-18.884,60.046c0,23.31,5.68,41.729,17.04,55.25
		c11.36,13.524,26.53,20.286,45.514,20.286c23.406,0,40.719-9.737,51.931-29.212h0.591v25.671H508.965z M472.156,621.222
		c-8.409,9.736-19.353,14.605-32.826,14.605c-13.672,0-24.563-5.039-32.678-15.122c-8.114-10.081-12.172-23.826-12.172-41.235
		c0-19.08,4.228-34.029,12.688-44.85c8.458-10.818,20.064-16.229,34.817-16.229c12.394,0,22.621,4.229,30.688,12.688
		c8.063,8.46,12.098,18.787,12.098,30.981v22.277C484.771,599.19,480.565,611.484,472.156,621.222z"/>
	<path d="M621.089,656.187c22.916,0,41.185-7.252,54.809-21.761c13.621-14.507,20.433-33.809,20.433-57.906
		c0-24.588-6.32-43.817-18.958-57.686c-12.639-13.867-30.221-20.802-52.742-20.802c-23.605,0-42.342,7.132-56.21,21.392
		c-13.868,14.263-20.802,34.08-20.802,59.456c0,23.31,6.662,42.023,19.99,56.136C580.935,649.13,598.761,656.187,621.089,656.187z
		 M585.977,534.251c9.048-10.571,21.341-15.859,36.883-15.859c15.639,0,27.662,5.115,36.071,15.344
		c8.409,10.229,12.614,24.785,12.614,43.669c0,18.688-4.205,33.098-12.614,43.227c-8.409,10.132-20.433,15.196-36.071,15.196
		c-15.344,0-27.589-5.164-36.735-15.491c-9.147-10.327-13.721-24.439-13.721-42.342
		C572.403,559.405,576.926,544.825,585.977,534.251z"/>
	<path d="M912.036,322.322c-21.844-51.642-53.104-98.012-92.915-137.824s-86.182-71.074-137.822-92.918
		C627.81,68.953,571.016,57.481,512.496,57.481c-70.946,0-139.696,17.126-201.16,49.357l-62.033-63.542L81.498,392.029
		l352.684-159.354l-58.854-60.287c42.859-18.454,89.388-28.179,137.169-28.179c191.286,0,346.908,155.624,346.908,346.912
		c0,191.289-155.622,346.913-346.908,346.913c-87.293,0-170.708-32.532-234.881-91.604c-17.62-16.219-45.054-15.083-61.273,2.536
		c-16.22,17.621-15.084,45.054,2.536,61.274c80.228,73.85,184.504,114.521,293.618,114.521c58.521,0,115.312-11.471,168.801-34.094
		c51.643-21.843,98.013-53.103,137.823-92.913c39.812-39.811,71.073-86.181,92.916-137.824
		c22.625-53.49,34.097-110.286,34.097-168.811C946.133,432.603,934.661,375.811,912.036,322.322z"/>
</g>
</svg>
